# xmcd
#
# Track frame offsets: 
#        150
#        17579
#        34731
#        53894
#        73644
#        96511
#        113986
#        131054
#        156724
#        177834
#        199479
#        219201
#        237726
#        251722
#        273948
#        291603
#        310146
#
# Disc length: 4438 seconds
#
# Revision: 0
# Processed by: cddbd v1.5.2PL0 Copyright (c) Steve Scherf et al.
# Submitted via: ExactAudioCopyFreeDBPlugin 1.0
#
DISCID=10115411
DTITLE=Various Artist - K歌情人 Bonus CD
DYEAR=1900
DGENRE=Pop
TTITLE0=你的電話
TTITLE1=麻糟
TTITLE2=愛我愛我
TTITLE3=愛情轉彎的地方
TTITLE4=為愛痴狂
TTITLE5=希望你會懂
TTITLE6=有一點動心
TTITLE7=我明白
TTITLE8=恨自由
TTITLE9=你的眼睛
TTITLE10=火花
TTITLE11=From Now On
TTITLE12=滾滾紅塵
TTITLE13=好久好久
TTITLE14=變了真心
TTITLE15=分手快樂
TTITLE16=花很迷茫KALA
EXTD=
EXTT0=
EXTT1=
EXTT2=
EXTT3=
EXTT4=
EXTT5=
EXTT6=
EXTT7=
EXTT8=
EXTT9=
EXTT10=
EXTT11=
EXTT12=
EXTT13=
EXTT14=
EXTT15=
EXTT16=
PLAYORDER=
